<svg xmlns:x="http://ns.adobe.com/Extensibility/1.0/" xmlns:i="http://ns.adobe.com/AdobeIllustrator/10.0/" xmlns:graph="http://ns.adobe.com/Graphs/1.0/" xmlns="http://www.w3.org/2000/svg" xmlns:xlink="http://www.w3.org/1999/xlink" version="1.2" baseProfile="tiny" id="Layer_1" x="0px" y="0px" viewBox="5.0 -10.0 100.0 135.0" xml:space="preserve" height="100px" width="100px">
<metadata>
	<sfw xmlns="http://ns.adobe.com/SaveForWeb/1.0/">
		<slices/>
		<sliceSourceBounds height="600.1" width="2028" x="-606" y="-210.1" bottomLeftOrigin="true"/>
	</sfw>
</metadata>
<g>
	<path d="M86.8,11.3c-2.6,0-4.8-0.7-6.1-1.9c-1.3,1.1-3.5,1.9-6.1,1.9s-4.8-0.7-6.1-1.9c-1.3,1.1-3.5,1.9-6.1,1.9s-4.8-0.7-6.1-1.9   c-1.3,1.1-3.5,1.9-6.1,1.9s-4.8-0.7-6.1-1.9c-1.3,1.1-3.5,1.9-6.1,1.9c-2.6,0-4.8-0.7-6.1-1.9c-1.3,1.1-3.5,1.9-6.1,1.9   s-4.8-0.7-6.1-1.9c-1.3,1.1-3.5,1.9-6.1,1.9c-4.2,0-7.4-1.9-7.4-4.3c0-0.7,0.6-1.2,1.2-1.2S8.2,6.3,8.2,7c0,0.6,1.9,1.8,4.9,1.8   S18,7.6,18,7c0-0.7,0.6-1.2,1.2-1.2s1.2,0.6,1.2,1.2c0,0.6,1.9,1.8,4.9,1.8s4.9-1.2,4.9-1.8c0-0.7,0.6-1.2,1.2-1.2s1.2,0.6,1.2,1.2   c0,0.6,1.9,1.8,4.9,1.8s4.9-1.2,4.9-1.8c0-0.7,0.6-1.2,1.2-1.2s1.2,0.6,1.2,1.2c0,0.6,1.9,1.8,4.9,1.8s4.9-1.2,4.9-1.8   c0-0.7,0.6-1.2,1.2-1.2s1.2,0.6,1.2,1.2c0,0.6,1.9,1.8,4.9,1.8s4.9-1.2,4.9-1.8c0-0.7,0.6-1.2,1.2-1.2s1.2,0.6,1.2,1.2   c0,0.6,1.9,1.8,4.9,1.8s4.9-1.2,4.9-1.8c0-0.7,0.6-1.2,1.2-1.2s1.2,0.6,1.2,1.2c0,0.6,1.9,1.8,4.9,1.8s4.9-1.2,4.9-1.8   c0-0.7,0.6-1.2,1.2-1.2s1.2,0.6,1.2,1.2C94.2,9.5,91,11.3,86.8,11.3z"/>
</g>
<g>
	<path d="M86.8,20.6c-2,0-4.6-0.5-6.2-1.7c-1.6,1.2-4.2,1.7-6.2,1.7c-2.1,0-4.7-0.5-6.2-1.7c-1.5,1.2-4.1,1.7-6.2,1.7   c-2,0-4.6-0.5-6.1-1.7c-1.4,1.1-3.8,1.7-6.1,1.7c-2,0-4.6-0.5-6.2-1.7c-1.5,1.2-4.1,1.7-6.1,1.7c-2,0-4.6-0.5-6.1-1.7   c-1.4,1.1-3.8,1.7-6.1,1.7c-2.3,0-4.7-0.6-6.1-1.7c-1.4,1.1-3.8,1.7-6.1,1.7c-3.6,0-7.4-1.5-7.4-4.1c0-0.7,0.6-1.3,1.3-1.3   c0.7,0,1.3,0.6,1.3,1.3C8.5,17,10.4,18,13,18c2.7,0,4.5-1,4.7-1.4c0-0.1,0-0.1,0-0.2c0.1-0.7,0.6-1.1,1.3-1.1   c0.7,0,1.3,0.6,1.3,1.4c0.2,0.4,2,1.4,4.8,1.4c2.7,0,4.6-1,4.8-1.4c0-0.1,0-0.1,0-0.2c0.1-0.7,0.6-1.1,1.3-1.1   c0.7,0,1.3,0.6,1.3,1.4c0.2,0.4,2.1,1.4,4.8,1.4c2.7,0,4.6-1,4.8-1.4c0-0.1,0-0.1,0-0.2c0.1-0.7,0.6-1.1,1.3-1.1   c0.7,0,1.3,0.6,1.3,1.4c0.2,0.4,2.2,1.4,4.8,1.4c2.7,0,4.5-1,4.8-1.4c0-0.1,0-0.1,0-0.2c0.1-0.7,0.6-1.1,1.3-1.1   c0.7,0,1.3,0.6,1.3,1.4c0.2,0.4,2.1,1.4,4.8,1.4c2.6,0,4.6-0.9,4.9-1.4c0-0.1,0-0.1,0-0.2c0.1-0.7,0.6-1.1,1.3-1.1   c0.7,0,1.3,0.6,1.3,1.4c0.2,0.4,2.3,1.4,4.9,1.4c2.6,0,4.6-0.9,4.9-1.4c0-0.1,0-0.1,0-0.2c0.1-0.6,0.6-1.1,1.3-1.1   c0.7,0,1.3,0.6,1.3,1.4c0.2,0.4,2.3,1.4,4.8,1.4c2.6,0,4.6-1,4.8-1.5c0-0.7,0.6-1.3,1.3-1.3s1.3,0.6,1.3,1.4   C94.3,19.4,89.9,20.6,86.8,20.6z"/>
</g>
<g>
	<path d="M86.7,29.9c-1.6,0-4.5-0.4-6.2-1.6c-1.7,1.1-4.7,1.6-6.3,1.6c-1.6,0-4.6-0.4-6.3-1.6c-1.7,1.1-4.6,1.6-6.2,1.6   c-1.6,0-4.4-0.4-6.1-1.6c-1.7,1.1-4.5,1.6-6,1.6c-1.6,0-4.5-0.4-6.2-1.6c-1.7,1.1-4.6,1.6-6.1,1.6c-1.6,0-4.4-0.4-6.1-1.6   c-1.7,1.1-4.5,1.6-6.1,1.6c-1.6,0-4.3-0.4-6-1.5c-1.7,1.1-4.5,1.5-6,1.5c-3,0-7.4-1.2-7.4-3.8c0-0.8,0.6-1.4,1.4-1.4   c0.7,0,1.3,0.5,1.4,1.2c0.4,0.4,2.4,1.2,4.5,1.2c2.1,0,4.1-0.7,4.6-1.2c0.1-0.7,0.7-1.2,1.4-1.2c0.7,0,1.3,0.5,1.4,1.2   c0.5,0.4,2.5,1.2,4.6,1.2c2.1,0,4.2-0.7,4.7-1.2c0.1-0.7,0.7-1.2,1.4-1.2c0.7,0,1.3,0.5,1.4,1.2c0.5,0.5,2.6,1.2,4.7,1.2   c2.2,0,4.3-0.7,4.7-1.2c0.1-0.7,0.7-1.2,1.4-1.2c0.7,0,1.3,0.5,1.4,1.2c0.5,0.5,2.6,1.2,4.8,1.2c2.1,0,4.2-0.7,4.6-1.2   c0.1-0.7,0.7-1.2,1.4-1.2c0.7,0,1.3,0.5,1.4,1.2c0.5,0.5,2.6,1.2,4.7,1.2c2.2,0,4.3-0.8,4.8-1.2c0.1-0.7,0.7-1.2,1.4-1.2   c0.7,0,1.3,0.5,1.4,1.2c0.5,0.5,2.7,1.2,4.9,1.2c2.2,0,4.4-0.8,4.9-1.2c0.1-0.7,0.7-1.2,1.4-1.2c0.7,0,1.3,0.5,1.4,1.2   c0.5,0.5,2.6,1.2,4.8,1.2c2.2,0,4.3-0.8,4.8-1.2c0.1-0.7,0.7-1.2,1.4-1.2c0.8,0,1.4,0.6,1.4,1.4C94.4,29,89.1,29.9,86.7,29.9z"/>
</g>
<g>
	<path d="M86.7,39.2c-0.1,0-4-0.1-6.2-1.4c-2.3,1.3-6.3,1.4-6.4,1.4s-4.1-0.1-6.4-1.4c-2.2,1.3-6.2,1.4-6.3,1.4   c-0.1,0-3.9-0.1-6.1-1.4c-2.2,1.3-6,1.4-6,1.4c-0.1,0-4-0.1-6.2-1.4c-2.2,1.3-6.1,1.4-6.2,1.4c-0.1,0-3.9-0.1-6.1-1.4   c-2.2,1.3-6,1.4-6,1.4c-0.1,0-3.8-0.1-6-1.4c-2.2,1.3-5.9,1.4-5.9,1.4c-1.6,0-7.4-0.6-7.4-3.5c0-0.8,0.7-1.5,1.5-1.5   c0.7,0,1.2,0.4,1.4,1.1c0.6,0.4,2.7,1,4.4,1c1.7,0,3.9-0.6,4.5-1c0.2-0.6,0.8-1,1.4-1c0.7,0,1.2,0.4,1.4,1c0.6,0.4,2.8,1,4.6,1   c1.8,0,4-0.6,4.6-1c0.2-0.6,0.8-1,1.4-1c0.7,0,1.2,0.4,1.4,1c0.6,0.4,2.9,1,4.7,1c1.8,0,4.1-0.6,4.7-1c0.2-0.6,0.8-1,1.4-1   c0.7,0,1.2,0.4,1.4,1c0.7,0.4,2.9,1,4.8,1c1.8,0,3.9-0.6,4.6-1c0.2-0.6,0.8-1,1.4-1c0.7,0,1.2,0.4,1.4,1c0.7,0.4,2.9,1,4.7,1   c1.8,0,4.2-0.6,4.9-1c0.2-0.6,0.8-1,1.4-1c0.6,0,1.2,0.4,1.4,1c0.7,0.4,3.1,1.1,5,1.1c1.9,0,4.3-0.6,5-1.1c0.2-0.6,0.8-1,1.4-1   c0.7,0,1.2,0.4,1.4,1c0.7,0.4,3,1,4.8,1s4.1-0.6,4.8-1c0.2-0.6,0.8-1,1.4-1c0.8,0,1.5,0.7,1.5,1.5C94.4,39,86.8,39.2,86.7,39.2z"/>
</g>
<g>
	<path d="M86.7,48.5c-0.1,0-4,0-6.3-1.2c-2.3,1.2-6.4,1.2-6.5,1.2s-4.1,0-6.5-1.2c-2.3,1.2-6.3,1.2-6.4,1.2c-0.1,0-3.9,0-6.2-1.2   c-2.2,1.1-5.9,1.2-5.9,1.2c-0.1,0-3.9,0-6.2-1.2c-2.2,1.2-6.1,1.2-6.2,1.2c-0.1,0-3.9,0-6.1-1.2c-2.2,1.1-5.9,1.2-6,1.2   c-0.1,0-3.7-0.1-5.9-1.2c-2.2,1.1-5.8,1.2-5.9,1.2c-0.1,0-7.3-0.1-7.3-3.3c0-0.9,0.7-1.6,1.6-1.6c0.6,0,1.2,0.4,1.4,0.9   c0.7,0.4,2.9,0.8,4.3,0.8c1.5,0,3.7-0.5,4.4-0.8c0.3-0.5,0.8-0.9,1.4-0.9c0.6,0,1.1,0.3,1.4,0.9c0.8,0.4,3,0.8,4.5,0.8   c1.5,0,3.8-0.5,4.6-0.9c0.3-0.5,0.8-0.8,1.4-0.8c0.6,0,1.1,0.3,1.4,0.8c0.8,0.4,3.2,0.9,4.7,0.9c1.5,0,4-0.5,4.8-0.9   c0.3-0.5,0.8-0.8,1.4-0.8c0.6,0,1.1,0.3,1.4,0.8c0.8,0.4,3.3,0.9,4.8,0.9c1.5,0,3.8-0.5,4.5-0.9c0.3-0.5,0.8-0.9,1.4-0.9   c0.6,0,1.1,0.3,1.4,0.8c0.8,0.4,3.2,0.9,4.8,0.9c1.6,0,4.1-0.5,5-0.9c0.3-0.5,0.8-0.8,1.4-0.8c0.6,0,1.1,0.3,1.4,0.8   c0.9,0.4,3.6,0.9,5.1,0.9c1.5,0,4.3-0.5,5.1-0.9c0.3-0.5,0.8-0.8,1.4-0.8c0.6,0,1.1,0.3,1.4,0.8c0.8,0.4,3.3,0.9,4.9,0.9   s4.1-0.5,4.9-0.9c0.3-0.5,0.8-0.8,1.4-0.8c0.9,0,1.6,0.7,1.6,1.6C94.5,48.4,86.8,48.5,86.7,48.5z"/>
</g>
<g>
	<path d="M86.6,57.8c-0.6,0-4.1,0-6.3-1c-2.1,1-5.6,1-6.6,1c-0.9,0-4.4-0.1-6.6-1c-2.1,1-5.5,1-6.4,1c-0.5,0-4,0-6.1-1   c-2.1,1-5.4,1-5.9,1c-0.6,0-4.1,0-6.2-1c-2.1,1-5.6,1-6.2,1c-0.5,0-4,0-6.1-1c-2.1,1-5.5,1-6,1c-0.5,0-3.8,0-5.9-1   c-2,0.9-5.3,1-5.8,1c-0.3,0-7.3,0-7.3-3c0-0.9,0.7-1.7,1.7-1.7c0.5,0,1,0.3,1.3,0.7c0.8,0.3,3.1,0.7,4.3,0.7c1.2,0,3.6-0.4,4.4-0.7   c0.3-0.4,0.8-0.7,1.3-0.7c0.5,0,1,0.3,1.3,0.7c0.8,0.3,3.3,0.7,4.6,0.7c1.3,0,3.8-0.4,4.7-0.7c0.3-0.4,0.8-0.6,1.3-0.6   c0.5,0,1,0.2,1.3,0.6c0.9,0.3,3.6,0.7,4.8,0.7c1.2,0,3.9-0.4,4.9-0.7c0.3-0.4,0.8-0.6,1.3-0.6c0.5,0,1,0.2,1.3,0.6   c0.9,0.3,3.7,0.7,4.9,0.7c1.2,0,3.7-0.4,4.6-0.7c0.3-0.4,0.8-0.7,1.3-0.7c0.5,0,1,0.2,1.3,0.6c0.9,0.3,3.6,0.7,4.8,0.7   c1.3,0,4.2-0.4,5.1-0.7c0.3-0.4,0.8-0.6,1.3-0.6c0.5,0,1,0.2,1.3,0.6c1,0.3,4,0.8,5.3,0.8c1.3,0,4.3-0.4,5.3-0.8   c0.3-0.4,0.8-0.6,1.3-0.6c0.5,0,1,0.2,1.3,0.6c0.9,0.3,3.8,0.7,5,0.7c1.2,0,4.1-0.4,5-0.7c0.3-0.4,0.8-0.6,1.3-0.6   c0.9,0,1.7,0.7,1.7,1.7C94.6,57.7,87.5,57.8,86.6,57.8z"/>
</g>
<g>
	<path d="M86.6,67.1c-0.7,0-2.3-0.1-3.8-0.3c-0.9-0.1-1.8-0.2-2.5-0.5c-0.8,0.2-1.7,0.4-2.7,0.5c-1.5,0.2-3.3,0.3-4,0.3   c-0.7,0-2.4-0.1-4-0.3c-1-0.1-1.9-0.2-2.7-0.5c-0.8,0.2-1.7,0.4-2.6,0.5c-1.5,0.2-3.2,0.3-3.9,0.3c-0.7,0-2.3-0.1-3.7-0.3   c-0.8-0.1-1.7-0.2-2.4-0.5c-1.5,0.6-3.8,0.8-5.8,0.8c-0.7,0-2.3-0.1-3.8-0.3c-0.8-0.1-1.7-0.2-2.5-0.5c-0.7,0.2-1.6,0.4-2.4,0.5   c-1.5,0.2-3.1,0.3-3.7,0.3c-0.6,0-2.2-0.1-3.7-0.3c-0.8-0.1-1.7-0.2-2.4-0.5c-0.7,0.2-1.6,0.4-2.3,0.5c-1.4,0.2-3,0.3-3.6,0.3   c-2,0-4.3-0.2-5.8-0.8c-1.5,0.6-3.7,0.8-5.7,0.8c-3.3,0-7.3-0.5-7.3-2.8c0-1,0.8-1.8,1.8-1.8c0.5,0,0.9,0.2,1.2,0.5   c0.9,0.3,3.4,0.6,4.4,0.6c0.9,0,3.6-0.3,4.5-0.6c0.6-0.6,1.7-0.6,2.4,0c0.9,0.3,3.7,0.6,4.6,0.6c1,0,3.8-0.3,4.8-0.6   c0.6-0.6,1.7-0.6,2.3,0c1,0.3,3.9,0.6,4.9,0.6c1.1,0,4-0.3,5-0.6c0.6-0.5,1.7-0.5,2.3,0c1,0.3,4.1,0.6,5.1,0.6c1,0,3.7-0.3,4.7-0.6   c0.6-0.6,1.7-0.6,2.3,0c1,0.3,3.9,0.6,5,0.6c1,0,4.3-0.3,5.3-0.6c0.6-0.5,1.7-0.5,2.3,0c1.1,0.3,4.5,0.6,5.5,0.6   c1,0,4.5-0.3,5.6-0.6c0.6-0.5,1.7-0.5,2.3,0c1,0.3,4.2,0.6,5.2,0.6c1,0,4.1-0.3,5.2-0.6c0.3-0.3,0.7-0.4,1.1-0.4   c1,0,1.8,0.8,1.8,1.8c0,1.9-2.2,2.2-4.3,2.5C88.9,67,87.3,67.1,86.6,67.1z"/>
</g>
<g>
	<path d="M86.6,76.4c-0.5,0-2.1-0.1-3.6-0.2c-1.1-0.1-2-0.2-2.8-0.4c-0.8,0.2-1.8,0.3-2.9,0.4c-1.6,0.1-3.4,0.2-3.8,0.2   c-3.5,0-5.5-0.2-6.7-0.6C66,76,65,76.1,63.9,76.2c-1.5,0.1-3.2,0.2-3.7,0.2c-0.4,0-2-0.1-3.5-0.2c-1-0.1-1.9-0.2-2.6-0.3   c-0.7,0.2-1.6,0.3-2.5,0.3c-1.4,0.1-2.9,0.2-3.3,0.2c-0.5,0-2.1-0.1-3.6-0.2c-1-0.1-2-0.2-2.7-0.3c-0.7,0.2-1.6,0.3-2.7,0.3   c-1.5,0.1-3.1,0.2-3.5,0.2c-0.4,0-2-0.1-3.5-0.2c-1-0.1-1.9-0.2-2.6-0.3c-0.7,0.2-1.6,0.3-2.5,0.3c-1.4,0.1-3,0.2-3.4,0.2   c-0.4,0-1.9-0.1-3.3-0.2c-0.9-0.1-1.7-0.2-2.4-0.3c-0.7,0.2-1.5,0.3-2.4,0.3c-1.3,0.1-2.8,0.2-3.3,0.2c-0.5,0-2-0.1-3.2-0.2   c-2.1-0.2-4.1-0.4-4.1-2.3c0-1,0.8-1.8,1.8-1.8c0.4,0,0.7,0.1,1,0.3c0.9,0.2,3.8,0.4,4.5,0.4c0.7,0,3.7-0.2,4.7-0.4   c0.6-0.3,1.4-0.3,1.9,0c1,0.2,4.1,0.4,4.8,0.4c0.8,0,4-0.2,5-0.4c0.6-0.3,1.3-0.3,1.9,0c1,0.2,4.3,0.4,5.1,0.4   c0.8,0,4.2-0.2,5.2-0.4c0.5-0.3,1.3-0.3,1.9,0c1,0.2,4.6,0.4,5.3,0.4c0.8,0,3.9-0.2,4.8-0.4c0.5-0.3,1.3-0.3,1.9,0   c1,0.2,4.4,0.4,5.2,0.4c0.8,0,4.5-0.2,5.6-0.4c0.5-0.3,1.3-0.3,1.8,0c1.1,0.2,5,0.4,5.8,0.4c0.8,0,4.8-0.2,5.9-0.4   c0.5-0.3,1.3-0.3,1.8,0c1.1,0.2,4.7,0.4,5.4,0.4s4.4-0.2,5.4-0.4c0.3-0.2,0.6-0.2,0.9-0.2c1,0,1.8,0.8,1.8,1.8   c0,1.9-1.9,2.1-4.6,2.3C88.7,76.3,87,76.4,86.6,76.4z"/>
</g>
<g>
	<path d="M86.6,85.7c-0.2,0-1.9,0-3.4-0.1c-1.2,0-2.1-0.1-2.9-0.2c-1.3,0.2-3.4,0.3-7,0.3c-3.4,0-5.6,0-6.8-0.3   c-1.2,0.2-3.3,0.3-6.5,0.3c-3,0-4.9,0-6.1-0.3c-1.2,0.2-3,0.3-5.8,0.3c-3.1,0-5-0.1-6.3-0.3c-1.2,0.2-3.2,0.3-6.2,0.3   c-2.9,0-4.8,0-6-0.3c-1.2,0.2-3,0.3-5.9,0.3c-2.7,0-4.6,0-5.7-0.3c-1.1,0.2-2.9,0.3-5.5,0.3c-5.8,0-7.3-0.3-7.3-2.3   c0-1.1,0.9-1.9,1.9-1.9c0.2,0,0.4,0,0.6,0.1c0.9,0.1,4.2,0.2,4.7,0.2c0.6,0,4-0.1,4.9-0.2c0.4-0.1,0.9-0.1,1.3,0   c0.9,0.1,4.5,0.2,5.1,0.2c0.5,0,4.3-0.1,5.3-0.2c0.4-0.1,0.9-0.1,1.2,0c1,0.1,4.9,0.2,5.4,0.2c0.5,0,4.6-0.1,5.6-0.2   c0.4-0.1,0.8-0.1,1.2,0c1,0.1,5.1,0.2,5.7,0.2c0.5,0,4.2-0.1,5.1-0.2c0.4-0.1,0.9-0.1,1.2,0c1,0.1,5,0.2,5.5,0.2   c0.6,0,4.9-0.1,5.9-0.2c0.4-0.1,0.8-0.1,1.2,0c1.1,0.1,5.6,0.2,6.2,0.2c0.6,0,5.2-0.1,6.3-0.2c0.4-0.1,0.8-0.1,1.2,0   c1,0.1,5.2,0.2,5.8,0.2c0.6,0,4.8-0.1,5.8-0.2c0.2-0.1,0.4-0.1,0.6-0.1c1.1,0,1.9,0.9,1.9,1.9c0,2-1.4,2-4.9,2.2   C88.4,85.7,86.8,85.7,86.6,85.7z M91.2,82.5c-0.1,0.3-0.2,0.6-0.2,0.9C91,83.1,91.1,82.8,91.2,82.5z M81.9,82.5   c0.1,0.3,0.2,0.6,0.2,0.9C82.1,83.1,82,82.8,81.9,82.5z M78.5,82.5c-0.1,0.3-0.2,0.6-0.2,0.9C78.3,83.1,78.4,82.8,78.5,82.5z    M68.2,82.5c0.2,0.3,0.2,0.6,0.2,0.9C68.4,83.1,68.3,82.8,68.2,82.5z M64.8,82.5c-0.1,0.3-0.2,0.6-0.2,0.9   C64.6,83.1,64.7,82.8,64.8,82.5z M55.5,82.6c0.1,0.3,0.2,0.6,0.2,0.9C55.7,83.1,55.6,82.8,55.5,82.6z M52.1,82.6   c-0.1,0.2-0.2,0.5-0.2,0.8C51.9,83.1,51.9,82.9,52.1,82.6z M43.4,82.6c0.1,0.3,0.2,0.6,0.2,0.9C43.7,83.1,43.6,82.8,43.4,82.6z    M40,82.6c-0.1,0.2-0.2,0.5-0.2,0.9C39.8,83.1,39.9,82.8,40,82.6z M31.2,82.6c0.1,0.3,0.2,0.6,0.2,0.9   C31.4,83.1,31.4,82.8,31.2,82.6z M27.8,82.6c-0.1,0.2-0.2,0.5-0.2,0.9C27.6,83.1,27.7,82.8,27.8,82.6z M19.7,82.6   c0.1,0.3,0.2,0.5,0.2,0.8C19.8,83.1,19.8,82.8,19.7,82.6z M16.2,82.6c-0.1,0.2-0.2,0.5-0.2,0.8C16,83.1,16.1,82.9,16.2,82.6z    M8.7,82.6c0.1,0.2,0.2,0.5,0.2,0.8C8.9,83.1,8.8,82.9,8.7,82.6z"/>
</g>
<g>
	<path d="M92.9,95H7c-1.1,0-2-0.9-2-2s0.9-2,2-2h85.9c1.1,0,2,0.9,2,2S94,95,92.9,95z"/>
</g>
<text x="0.0" y="117.5" font-size="5.0" font-weight="bold" font-family="Helvetica Neue, Helvetica, Arial-Unicode, Arial, Sans-serif" fill="#000000">Created by Anna Ho</text><text x="0.0" y="122.5" font-size="5.0" font-weight="bold" font-family="Helvetica Neue, Helvetica, Arial-Unicode, Arial, Sans-serif" fill="#000000">from the Noun Project</text></svg>